<?xml version="1.0" encoding="UTF-8"?>
<svg version="1.1" xmlns="http://www.w3.org/2000/svg" width="500" height="500">
<path d="M0 0 C2.5625 2.5 2.5625 2.5 4 5 C4 6.32 4 7.64 4 9 C-0.30666942 9.77299195 -4.59726167 10.29783533 -8.94921875 10.71875 C-11.19486661 10.96251297 -11.19486661 10.96251297 -14 12 C-14.5265546 17.39749789 -14.5265546 17.39749789 -12.5625 22.1875 C-9.65718509 24.24247884 -6.64394422 25.89943079 -3.51171875 27.58203125 C7.06014307 33.55028295 13.1794101 39.83756846 18 51 C18 51.66 18 52.32 18 53 C19.2684375 52.96519531 19.2684375 52.96519531 20.5625 52.9296875 C31.33028998 52.75838175 38.85909263 53.44901345 47 61 C52.65497441 66.7188003 54.96419711 73.07610791 56 81 C55.94682167 84.14195271 55.56929704 86.89474344 55 90 C55.76183594 90.09796875 56.52367187 90.1959375 57.30859375 90.296875 C67.15732657 91.72315841 76.33217606 94.14149321 83 102 C88.94092775 110.50393861 90.51552496 118.76178693 89 129 C87.11831476 134.6671932 84.08593657 139.6322747 80 144 C79.34 144.33 78.68 144.66 78 145 C77.77057986 147.31816544 77.77057986 147.31816544 80.3125 149.4375 C81.80574165 150.86128855 83.30242971 152.28157249 84.8125 153.6875 C86 155 86 155 86 157 C86.66 157 87.32 157 88 157 C88.9902653 158.70192385 89.96673206 160.41188011 90.9375 162.125 C91.48277344 163.07632813 92.02804687 164.02765625 92.58984375 165.0078125 C94.02948527 168.06256432 94.60867384 170.66134387 95 174 C96.2375 174.28875 97.475 174.5775 98.75 174.875 C101.72448742 175.61334794 104.333856 176.44474933 107 178 C106.39773796 181.43959388 105.51667795 184.48398852 104.1796875 187.70703125 C103.82229492 188.5779541 103.46490234 189.44887695 103.09667969 190.34619141 C102.73477539 191.22194824 102.37287109 192.09770508 102 193 C101.35455242 194.60718378 100.7112695 196.21523883 100.0703125 197.82421875 C99.07121492 200.32208958 98.07201085 202.81991755 97.07250977 205.31762695 C95.5105998 209.22114372 93.94935891 213.12490614 92.39453125 217.03125 C88.35414092 227.17013834 88.35414092 227.17013834 86.28515625 232.10546875 C83.31642564 239.19811617 80.49257411 246.287216 78 253.5625 C75.8335579 259.88008266 73.33952357 265.96423828 70.60546875 272.05541992 C67.70787644 278.55027097 65.25448708 285.18122538 62.79882812 291.85253906 C61.31845143 295.83218254 59.78520438 299.79125162 58.25 303.75 C57.95609375 304.51296387 57.6621875 305.27592773 57.359375 306.06201172 C57.0809375 306.7788916 56.8025 307.49577148 56.515625 308.234375 C56.27102539 308.86569336 56.02642578 309.49701172 55.77441406 310.14746094 C54.94173791 312.13937349 53.9655118 314.06897639 53 316 C2.84 316 -47.32 316 -99 316 C-104.58730159 303.70793651 -104.58730159 303.70793651 -106.9375 297.25 C-108.88864799 291.94959245 -110.89174415 286.67751039 -113 281.4375 C-113.24741943 280.82221436 -113.49483887 280.20692871 -113.74975586 279.57299805 C-114.49845557 277.71477067 -115.24888392 275.85725186 -116 274 C-117.00226618 271.52174027 -118.00264586 269.04274092 -119 266.5625 C-119.2482251 265.94552246 -119.4964502 265.32854492 -119.75219727 264.69287109 C-121.55765508 260.17658786 -123.25741161 255.62662901 -124.9375 251.0625 C-126.9455001 245.62042341 -129.13474478 240.29625567 -131.5 235 C-134.15592175 229.05288678 -136.54977736 223.05345426 -138.79638672 216.94067383 C-140.49467807 212.32284152 -142.27875872 207.74811744 -144.125 203.1875 C-146.25206276 197.91995715 -148.26292169 192.63086832 -150.140625 187.26953125 C-150.93873416 184.98301822 -150.93873416 184.98301822 -152.171875 182.94921875 C-153 181 -153 181 -152.8671875 178.859375 C-152 177 -152 177 -150.2578125 175.953125 C-149.55398437 175.72109375 -148.85015625 175.4890625 -148.125 175.25 C-147.42632812 175.00765625 -146.72765625 174.7653125 -146.0078125 174.515625 C-144 174 -144 174 -141 174 C-140.91363281 173.443125 -140.82726562 172.88625 -140.73828125 172.3125 C-139.66835859 166.50154391 -137.87678079 161.56018767 -134 157 C-133.34 157 -132.68 157 -132 157 C-131.7525 156.443125 -131.505 155.88625 -131.25 155.3125 C-129.33305069 151.76614378 -126.84261197 148.84261197 -124 146 C-124.721875 145.319375 -125.44375 144.63875 -126.1875 143.9375 C-133.86266387 136.26233613 -135.35098082 129.93288408 -135.3828125 119.33691406 C-135.21954095 110.36718336 -132.82309271 104.49726162 -126.4375 98.125 C-119.51947136 92.58011504 -110.67693182 90.66745629 -102 90 C-102.04640625 89.10539062 -102.0928125 88.21078125 -102.140625 87.2890625 C-102.43353619 77.47653758 -101.4081179 70.02816377 -95.25 62.1875 C-87.22542528 53.80715596 -79.12898368 52.90490523 -68 52 C-67.76925781 51.06800781 -67.53851563 50.13601562 -67.30078125 49.17578125 C-63.41621691 33.99066612 -59.0263603 19.82372427 -47 9 C-46.54753906 8.53207031 -46.09507812 8.06414062 -45.62890625 7.58203125 C-34.49521391 -3.21848326 -13.64311284 -9.08560747 0 0 Z " fill="#F7ABA2" transform="translate(273,93)"/>
<path d="M0 0 C2.5625 2.5 2.5625 2.5 4 5 C4 6.32 4 7.64 4 9 C-0.30666942 9.77299195 -4.59726167 10.29783533 -8.94921875 10.71875 C-11.19486661 10.96251297 -11.19486661 10.96251297 -14 12 C-14.5265546 17.39749789 -14.5265546 17.39749789 -12.5625 22.1875 C-9.65718509 24.24247884 -6.64394422 25.89943079 -3.51171875 27.58203125 C7.06014307 33.55028295 13.1794101 39.83756846 18 51 C18 51.66 18 52.32 18 53 C19.2684375 52.96519531 19.2684375 52.96519531 20.5625 52.9296875 C31.33028998 52.75838175 38.85909263 53.44901345 47 61 C52.65497441 66.7188003 54.96419711 73.07610791 56 81 C55.94682167 84.14195271 55.56929704 86.89474344 55 90 C55.76183594 90.09796875 56.52367187 90.1959375 57.30859375 90.296875 C67.15732657 91.72315841 76.33217606 94.14149321 83 102 C88.94092775 110.50393861 90.51552496 118.76178693 89 129 C87.10396986 134.71039666 84.04617962 139.54920242 80 144 C79.58167215 144.49306861 79.16334431 144.98613722 78.73233986 145.4941473 C70.44463934 152.69830885 56.80163786 151.56703121 46.47900391 151.50170898 C44.75447144 151.50550043 43.02994204 151.51100724 41.30541992 151.51808167 C36.66110793 151.53193963 32.01717036 151.52093788 27.37287951 151.50437045 C22.49682412 151.49043632 17.62078862 151.49698899 12.74472046 151.50050354 C4.56591816 151.50319755 -3.61273669 151.48979468 -11.79150391 151.46655273 C-21.2376006 151.43989468 -30.68345175 151.43821586 -40.12957323 151.4499411 C-49.23908963 151.46072698 -58.34851751 151.45452888 -67.45802689 151.44038582 C-71.32629116 151.43463843 -75.19449039 151.43469873 -79.06275558 151.43945122 C-83.61507892 151.44423078 -88.16713383 151.43407888 -92.71940613 151.41249657 C-94.38707702 151.40694383 -96.0547738 151.40644948 -97.72244644 151.41144943 C-100.00327861 151.41742929 -102.28329735 151.4048469 -104.5640564 151.38768005 C-105.83860373 151.38525016 -107.11315105 151.38282026 -108.42632103 151.38031673 C-112.56773317 150.93958091 -115.23953966 149.73777814 -119 148 C-121.79340157 147.74609778 -121.79340157 147.74609778 -124 148 C-124.226875 147.443125 -124.45375 146.88625 -124.6875 146.3125 C-125.94742485 143.83058079 -125.94742485 143.83058079 -128.375 141.75 C-134.08192788 135.77131365 -135.71332111 129.75950376 -135.5625 121.625 C-135.55154297 120.78936523 -135.54058594 119.95373047 -135.52929688 119.09277344 C-135.22061822 110.28857231 -132.69768387 104.37211459 -126.4375 98.125 C-119.51947136 92.58011504 -110.67693182 90.66745629 -102 90 C-102.04640625 89.10539062 -102.0928125 88.21078125 -102.140625 87.2890625 C-102.43353619 77.47653758 -101.4081179 70.02816377 -95.25 62.1875 C-87.22542528 53.80715596 -79.12898368 52.90490523 -68 52 C-67.76925781 51.06800781 -67.53851563 50.13601562 -67.30078125 49.17578125 C-63.41621691 33.99066612 -59.0263603 19.82372427 -47 9 C-46.54753906 8.53207031 -46.09507812 8.06414062 -45.62890625 7.58203125 C-34.49521391 -3.21848326 -13.64311284 -9.08560747 0 0 Z " fill="#F9CAC3" transform="translate(273,93)"/>
<path d="M0 0 C3.71589953 1.08725517 6.80606898 1.22782431 10.67585564 1.23402119 C11.39404287 1.23784673 12.11223011 1.24167228 12.8521806 1.24561375 C15.24718594 1.25589298 17.64194926 1.25196133 20.03697014 1.24798298 C21.75884535 1.25233229 23.48071863 1.25751617 25.20258904 1.26347065 C29.87206531 1.27684885 34.54146058 1.27744059 39.21095228 1.27490735 C43.11247124 1.27383676 47.01397386 1.27872329 50.91548932 1.28351277 C60.122011 1.29460405 69.32849188 1.2950476 78.53501701 1.2889986 C88.02467088 1.28295933 97.51417647 1.29526954 107.00380504 1.31656867 C115.15855791 1.33419702 123.31326364 1.34018405 131.46803486 1.33693093 C136.3352608 1.33511978 141.20238097 1.33773743 146.06958961 1.35164547 C150.64805972 1.36423911 155.22629906 1.36226517 159.8047657 1.34923458 C161.48169598 1.34687254 163.15864257 1.34959013 164.83555412 1.3578577 C176.39932639 1.45746244 176.39932639 1.45746244 187.32652092 -2.02667522 C190.51402092 -2.52667522 190.51402092 -2.52667522 193.32652092 -2.02667522 C196.01402092 0.28582478 196.01402092 0.28582478 198.32652092 2.97332478 C198.92464592 3.53019978 199.52277092 4.08707478 200.13902092 4.66082478 C201.32652092 5.97332478 201.32652092 5.97332478 201.32652092 7.97332478 C201.98652092 7.97332478 202.64652092 7.97332478 203.32652092 7.97332478 C207.80366721 13.09205589 209.1567823 18.30722633 209.32652092 24.97332478 C208.46929436 24.96172321 207.61206779 24.95012165 206.72886467 24.93816853 C200.79846978 24.89136721 195.19441782 25.05287036 189.32652092 25.97332478 C184.08761258 26.40990047 180.73198917 25.89079372 175.82652092 23.97332478 C166.16463042 20.23066939 157.1477764 22.42622347 147.32652092 24.97332478 C147.17997194 26.41075199 147.0343411 27.84827281 146.88902092 29.28582478 C146.79363029 30.21266071 146.69823967 31.13949665 146.59995842 32.09441853 C146.4327281 33.85511494 146.28680379 35.61820549 146.17808342 37.38348103 C145.71719879 44.30772395 144.38491736 50.9525573 142.98179436 57.73260212 C139.90793929 72.70321111 137.60809959 87.8180058 135.40489006 102.93792439 C134.63210879 108.1659992 133.71752886 113.34991221 132.70152092 118.53582478 C131.69388642 123.73501102 131.02319742 128.80012983 130.63511467 134.07488728 C130.11415972 138.96790715 129.10426916 143.76870269 128.14292717 148.59051228 C127.06801685 154.36108345 126.219071 160.17174928 125.32652092 165.97332478 C114.43652092 165.97332478 103.54652092 165.97332478 92.32652092 165.97332478 C92.32652092 117.79332478 92.32652092 69.61332478 92.32652092 19.97332478 C84.40652092 21.45832478 84.40652092 21.45832478 76.32652092 22.97332478 C69.13498946 22.78239916 63.12140934 22.09672741 56.32652092 19.97332478 C52.39898356 19.5992736 49.91054777 20.39984957 46.32652092 21.97332478 C39.48817927 24.77082818 33.32185242 24.48828892 26.20152092 22.97332478 C19.70692804 21.59870236 15.19181948 21.58446251 8.95933342 24.01238728 C1.99701762 26.38238025 -4.16045209 26.24093869 -11.42347908 25.72332478 C-12.60941658 25.65758259 -13.79535408 25.5918404 -15.01722908 25.52410603 C-17.90453931 25.36111271 -20.78882227 25.1772645 -23.67347908 24.97332478 C-24.00347908 24.31332478 -24.33347908 23.65332478 -24.67347908 22.97332478 C-23.89613533 21.02801228 -23.89613533 21.02801228 -22.73597908 18.84832478 C-22.16556892 17.76164509 -22.16556892 17.76164509 -21.58363533 16.65301228 C-21.28328377 16.0987154 -20.98293221 15.54441853 -20.67347908 14.97332478 C-20.01347908 14.97332478 -19.35347908 14.97332478 -18.67347908 14.97332478 C-18.75597908 14.27207478 -18.83847908 13.57082478 -18.92347908 12.84832478 C-18.58633146 8.9711271 -16.99083232 7.06312909 -14.67347908 3.97332478 C-14.01347908 3.04519978 -13.35347908 2.11707478 -12.67347908 1.16082478 C-8.5997467 -3.29482001 -5.14091038 -1.97422353 0 0 Z " fill="#F7ABA1" transform="translate(157.6734790802002,242.0266752243042)"/>
<path d="M0 0 C5.19931962 1.24231531 10.30929993 1.11634598 15.625 0.9375 C14.965 1.5975 14.305 2.2575 13.625 2.9375 C12.305 2.9375 10.985 2.9375 9.625 2.9375 C9.68034912 3.67871094 9.73569824 4.41992188 9.79272461 5.18359375 C10.88617952 20.05731139 11.7770705 34.90384186 12.1875 49.8125 C12.32200387 66.84084534 12.32200387 66.84084534 14.125 83.73388672 C14.62035588 86.90774409 14.81388206 89.94695551 14.90625 93.15625 C14.96147827 94.91533691 14.96147827 94.91533691 15.01782227 96.70996094 C15.07087524 98.55509277 15.07087524 98.55509277 15.125 100.4375 C15.46766578 111.5727611 15.46766578 111.5727611 16.1875 122.6875 C16.70549947 130.08749246 16.625 137.51939972 16.625 144.9375 C-1.525 144.9375 -19.675 144.9375 -38.375 144.9375 C-38.705 141.6375 -39.035 138.3375 -39.375 134.9375 C-40.035 134.9375 -40.695 134.9375 -41.375 134.9375 C-41.62894531 133.88691406 -41.88289063 132.83632813 -42.14453125 131.75390625 C-44.7384879 119.17862497 -44.7384879 119.17862497 -49.875 107.59765625 C-51.58034116 104.57334029 -52.16191874 101.96491879 -52.8125 98.5625 C-53.62398538 94.75706068 -54.32275809 91.53176614 -56.4375 88.25 C-58.55224948 84.63446057 -59.05698334 81.865137 -59.75390625 77.80078125 C-60.75225728 73.19832021 -62.45086853 68.87129535 -64.08203125 64.4609375 C-65.27078868 61.22148372 -66.37048803 57.96866725 -67.4375 54.6875 C-68.90332694 50.21880491 -70.56575534 45.89258588 -72.4453125 41.58203125 C-73.2369561 39.33017109 -73.76688785 37.24168911 -74.25390625 34.9140625 C-75.52093087 28.98882311 -77.3274845 23.2621949 -79.1875 17.5 C-79.51814453 16.41267578 -79.84878906 15.32535156 -80.18945312 14.20507812 C-80.52525391 13.16931641 -80.86105469 12.13355469 -81.20703125 11.06640625 C-81.50327393 10.12869385 -81.7995166 9.19098145 -82.10473633 8.22485352 C-83.73036866 5.29759053 -85.22401703 4.84293992 -88.375 3.9375 C-88.375 3.6075 -88.375 3.2775 -88.375 2.9375 C-83.05253089 2.82235043 -77.86046994 2.97779407 -72.55834961 3.49829102 C-65.41169827 4.15523026 -60.18139722 3.48612323 -53.47265625 0.80078125 C-47.5472286 -0.85056744 -38.89453408 -0.82226704 -33.375 1.9375 C-27.00275967 2.48551267 -21.79933169 1.6959406 -16.0625 -1.25 C-10.7342721 -2.8608596 -5.28646194 -1.31687851 0 0 Z " fill="#F7AAA1" transform="translate(222.375,263.0625)"/>
<path d="M0 0 C1.13566406 -0.01417969 2.27132812 -0.02835937 3.44140625 -0.04296875 C6.4375 0.1875 6.4375 0.1875 9.4375 2.1875 C8.591875 2.23648438 7.74625 2.28546875 6.875 2.3359375 C0.49040815 2.75674014 -5.42042595 3.38100763 -11.5625 5.1875 C-11.5625 5.8475 -11.5625 6.5075 -11.5625 7.1875 C-12.5525 7.1875 -13.5425 7.1875 -14.5625 7.1875 C-14.6553125 8.0228125 -14.6553125 8.0228125 -14.75 8.875 C-15.5625 11.1875 -15.5625 11.1875 -17.9375 13.5 C-25.27351918 21.0106863 -24.74266181 31.53448876 -24.75 41.375 C-24.76224609 42.25091797 -24.77449219 43.12683594 -24.78710938 44.02929688 C-24.78904297 44.87943359 -24.79097656 45.72957031 -24.79296875 46.60546875 C-24.79707764 47.36625732 -24.80118652 48.1270459 -24.80541992 48.91088867 C-24.60899086 51.72566473 -24.60899086 51.72566473 -22.5625 56.1875 C-18.2725 56.5175 -13.9825 56.8475 -9.5625 57.1875 C-11.80800185 60.55575277 -12.30310415 60.64765972 -16 61.625 C-19.78241012 62.76457228 -21.50911326 63.6846638 -23.5625 67.1875 C-24.2225 67.1875 -24.8825 67.1875 -25.5625 67.1875 C-25.5625 67.8475 -25.5625 68.5075 -25.5625 69.1875 C-26.2225 69.1875 -26.8825 69.1875 -27.5625 69.1875 C-28.0575 71.1675 -28.0575 71.1675 -28.5625 73.1875 C-29.2225 73.1875 -29.8825 73.1875 -30.5625 73.1875 C-30.73974852 74.561176 -30.90323451 75.93662309 -31.0625 77.3125 C-31.16949219 78.21871094 -31.27648437 79.12492187 -31.38671875 80.05859375 C-31.64797098 83.25904549 -31.64797098 83.25904549 -31.20703125 86.72265625 C-30.86367801 90.49954186 -30.69864007 93.48588258 -31.5625 97.1875 C-35.25326372 100.66736294 -40.2949377 104.1875 -45.5625 104.1875 C-45.5625 105.1775 -45.5625 106.1675 -45.5625 107.1875 C-46.2225 107.1875 -46.8825 107.1875 -47.5625 107.1875 C-47.85125 108.095 -48.14 109.0025 -48.4375 109.9375 C-49.5625 113.1875 -49.5625 113.1875 -50.62060547 115.10644531 C-51.7024705 117.49675572 -51.79311301 119.12213725 -51.7578125 121.734375 C-51.75136719 122.57871094 -51.74492187 123.42304688 -51.73828125 124.29296875 C-51.72152344 125.16566406 -51.70476562 126.03835937 -51.6875 126.9375 C-51.67847656 127.82566406 -51.66945313 128.71382812 -51.66015625 129.62890625 C-51.63664577 131.81538058 -51.60378499 134.00130094 -51.5625 136.1875 C-50.9025 136.1875 -50.2425 136.1875 -49.5625 136.1875 C-49.0675 139.6525 -49.0675 139.6525 -48.5625 143.1875 C-47.9025 143.1875 -47.2425 143.1875 -46.5625 143.1875 C-46.52125 143.80625 -46.48 144.425 -46.4375 145.0625 C-46.14875 145.76375 -45.86 146.465 -45.5625 147.1875 C-42.75873648 148.31699221 -42.75873648 148.31699221 -39.5625 149.1875 C-37.87493867 150.15182076 -36.20583504 151.14960419 -34.5625 152.1875 C-33.23403246 152.86381075 -31.90143497 153.5321563 -30.5625 154.1875 C-38.91654896 154.21072427 -47.27058431 154.22846636 -55.62465763 154.23931217 C-59.50425931 154.24451899 -63.38383881 154.25157647 -67.26342773 154.26293945 C-71.01113031 154.2738468 -74.75881162 154.27979341 -78.50652885 154.28237724 C-79.93257418 154.28421739 -81.35861841 154.28781064 -82.78465462 154.29323006 C-84.79009989 154.30054467 -86.79556679 154.30090895 -88.80102539 154.30102539 C-90.509786 154.30435631 -90.509786 154.30435631 -92.25306702 154.30775452 C-105.89904432 153.81190208 -105.89904432 153.81190208 -109.89453125 149.875 C-111.51706098 148.02557298 -113.04870733 146.1269312 -114.5625 144.1875 C-115.05878906 143.59453125 -115.55507812 143.0015625 -116.06640625 142.390625 C-121.34452162 134.87194214 -120.70679571 124.95581439 -119.5625 116.1875 C-117.60417923 108.81235618 -113.02547488 103.19092431 -106.5625 99.1875 C-100.09057444 96.33044538 -93.59911576 94.72877814 -86.5625 94.1875 C-86.60890625 93.29289062 -86.6553125 92.39828125 -86.703125 91.4765625 C-86.99603619 81.66403758 -85.9706179 74.21566377 -79.8125 66.375 C-71.78792528 57.99465596 -63.69148368 57.09240523 -52.5625 56.1875 C-52.33175781 55.25550781 -52.10101563 54.32351562 -51.86328125 53.36328125 C-47.97871691 38.17816612 -43.5888603 24.01122427 -31.5625 13.1875 C-31.11003906 12.71957031 -30.65757812 12.25164062 -30.19140625 11.76953125 C-22.37308825 4.18517787 -10.75156988 0.06115796 0 0 Z " fill="#FEEEEE" transform="translate(257.5625,88.8125)"/>
<path d="M0 0 C0.99 0.99 0.99 0.99 2 2 C1.625 4.125 1.625 4.125 1 6 C0.14728516 5.96519531 0.14728516 5.96519531 -0.72265625 5.9296875 C-5.92558648 5.80808312 -10.07312243 6.32276508 -15 8 C-15.5265546 13.39749789 -15.5265546 13.39749789 -13.5625 18.1875 C-10.65718509 20.24247884 -7.64394422 21.89943079 -4.51171875 23.58203125 C6.06014307 29.55028295 12.1794101 35.83756846 17 47 C17 47.66 17 48.32 17 49 C18.2684375 48.96519531 18.2684375 48.96519531 19.5625 48.9296875 C30.33028998 48.75838175 37.85909263 49.44901345 46 57 C51.65497441 62.7188003 53.96419711 69.07610791 55 77 C54.94682167 80.14195271 54.56929704 82.89474344 54 86 C54.76183594 86.09796875 55.52367187 86.1959375 56.30859375 86.296875 C66.15732657 87.72315841 75.33217606 90.14149321 82 98 C87.94092775 106.50393861 89.51552496 114.76178693 88 125 C86.10396986 130.71039666 83.04617962 135.54920242 79 140 C78.58159033 140.49304815 78.16318066 140.98609631 77.7320919 141.49408531 C69.44745989 148.69690695 55.70351198 147.56078178 45.41552734 147.48583984 C43.68450637 147.48799043 41.95348682 147.49187512 40.22247314 147.49734497 C35.56188801 147.50696201 30.9016914 147.49183683 26.24115324 147.47143888 C21.35255654 147.45376824 16.46397003 147.45739473 11.5753479 147.4581604 C3.37975622 147.45629351 -4.81568638 147.43900308 -13.01123047 147.41162109 C-22.48918116 147.3800718 -31.96696942 147.36962884 -41.44496882 147.3710922 C-51.54867814 147.37244146 -61.65232485 147.35858061 -71.7560153 147.34019899 C-74.66590455 147.3359348 -77.57578372 147.3345165 -80.48567581 147.33372116 C-85.04779019 147.33171613 -89.60976764 147.31953822 -94.17183685 147.29938889 C-95.84763882 147.29353691 -97.52345655 147.29108855 -99.19926834 147.29224396 C-101.48135036 147.29322222 -103.76304615 147.28194623 -106.04507446 147.26742554 C-107.96242621 147.262398 -107.96242621 147.262398 -109.91851234 147.25726891 C-113 147 -113 147 -116 145 C-115.33646735 145.00368717 -114.6729347 145.00737434 -113.98929501 145.01117325 C-97.83056611 145.09958039 -81.671914 145.16573679 -65.51299953 145.20724869 C-57.69860069 145.22785807 -49.88436346 145.2559474 -42.07006836 145.30175781 C-35.257679 145.34167557 -28.44540671 145.36744463 -21.63290364 145.37635398 C-18.02698175 145.38156044 -14.42139474 145.39376305 -10.81558037 145.42292023 C-6.78632746 145.45523594 -2.75765363 145.45595626 1.27172852 145.45410156 C3.05737213 145.47567322 3.05737213 145.47567322 4.87908936 145.49768066 C13.25777527 145.45592889 17.54057465 144.15192088 23.8125 138.4375 C26.09857671 136.00694668 26.09857671 136.00694668 28 133 C28.66 133 29.32 133 30 133 C31.84964349 128.29515287 32.30678989 124.06474277 32.25 119.0625 C32.25773438 118.38509766 32.26546875 117.70769531 32.2734375 117.00976562 C32.24497257 109.58753598 30.54039097 103.87580007 26 98 C24.68441297 96.97676564 23.35622245 95.96873032 22 95 C22 94.34 22 93.68 22 93 C18.77484237 91.26337666 15.48670834 90.1094072 12 89 C12.165 88.21625 12.33 87.4325 12.5 86.625 C13.9002851 76.47293299 12.91213156 67.73090913 6.66015625 59.1640625 C4.55552897 56.95068548 2.91518315 55.97172772 0 55 C0 54.34 0 53.68 0 53 C-0.65226562 52.89945313 -1.30453125 52.79890625 -1.9765625 52.6953125 C-9.08587243 51.16439915 -9.08587243 51.16439915 -11.68359375 47.85546875 C-12.62117973 46.12637959 -13.53850523 44.38618301 -14.4375 42.63671875 C-17.62082595 37.26485621 -22.80716611 33.52544966 -27.875 30 C-32.20335414 25.92625493 -33.17329691 20.72354757 -33.4375 14.9375 C-33.22813571 8.74222039 -31.09216547 5.09216547 -26.6875 0.6875 C-18.15215622 -4.67190191 -8.86796525 -4.01082246 0 0 Z " fill="#F29E93" transform="translate(274,97)"/>
<path d="M0 0 C3.71589953 1.08725517 6.80606898 1.22782431 10.67585564 1.23402119 C11.39404287 1.23784673 12.11223011 1.24167228 12.8521806 1.24561375 C15.24718594 1.25589298 17.64194926 1.25196133 20.03697014 1.24798298 C21.75884535 1.25233229 23.48071863 1.25751617 25.20258904 1.26347065 C29.87206531 1.27684885 34.54146058 1.27744059 39.21095228 1.27490735 C43.11247124 1.27383676 47.01397386 1.27872329 50.91548932 1.28351277 C60.122011 1.29460405 69.32849188 1.2950476 78.53501701 1.2889986 C88.02467088 1.28295933 97.51417647 1.29526954 107.00380504 1.31656867 C115.15855791 1.33419702 123.31326364 1.34018405 131.46803486 1.33693093 C136.3352608 1.33511978 141.20238097 1.33773743 146.06958961 1.35164547 C150.64805972 1.36423911 155.22629906 1.36226517 159.8047657 1.34923458 C161.48169598 1.34687254 163.15864257 1.34959013 164.83555412 1.3578577 C176.39932639 1.45746244 176.39932639 1.45746244 187.32652092 -2.02667522 C190.51402092 -2.52667522 190.51402092 -2.52667522 193.32652092 -2.02667522 C196.01402092 0.28582478 196.01402092 0.28582478 198.32652092 2.97332478 C198.92464592 3.53019978 199.52277092 4.08707478 200.13902092 4.66082478 C201.32652092 5.97332478 201.32652092 5.97332478 201.32652092 7.97332478 C201.98652092 7.97332478 202.64652092 7.97332478 203.32652092 7.97332478 C207.80366721 13.09205589 209.1567823 18.30722633 209.32652092 24.97332478 C208.46929436 24.96172321 207.61206779 24.95012165 206.72886467 24.93816853 C200.79846978 24.89136721 195.19441782 25.05287036 189.32652092 25.97332478 C184.08761258 26.40990047 180.73198917 25.89079372 175.82652092 23.97332478 C168.88336974 21.28380742 164.09431335 21.58677151 156.88902092 23.03582478 C149.77715818 24.40725836 144.20267998 23.65138399 137.38902092 21.34832478 C130.82483117 19.25879233 125.16197473 20.15632961 118.63902092 22.03582478 C113.1176497 23.59847701 108.89055057 23.2458994 103.51402092 21.47332478 C96.08897398 19.12149995 89.96701915 19.41059401 82.51402092 21.53582478 C73.550773 23.98454715 65.0574325 22.70173465 56.32652092 19.97332478 C52.39898356 19.5992736 49.91054777 20.39984957 46.32652092 21.97332478 C39.48817927 24.77082818 33.32185242 24.48828892 26.20152092 22.97332478 C19.70692804 21.59870236 15.19181948 21.58446251 8.95933342 24.01238728 C1.99701762 26.38238025 -4.16045209 26.24093869 -11.42347908 25.72332478 C-12.60941658 25.65758259 -13.79535408 25.5918404 -15.01722908 25.52410603 C-17.90453931 25.36111271 -20.78882227 25.1772645 -23.67347908 24.97332478 C-24.00347908 24.31332478 -24.33347908 23.65332478 -24.67347908 22.97332478 C-23.89613533 21.02801228 -23.89613533 21.02801228 -22.73597908 18.84832478 C-22.16556892 17.76164509 -22.16556892 17.76164509 -21.58363533 16.65301228 C-21.28328377 16.0987154 -20.98293221 15.54441853 -20.67347908 14.97332478 C-20.01347908 14.97332478 -19.35347908 14.97332478 -18.67347908 14.97332478 C-18.75597908 14.27207478 -18.83847908 13.57082478 -18.92347908 12.84832478 C-18.58633146 8.9711271 -16.99083232 7.06312909 -14.67347908 3.97332478 C-14.01347908 3.04519978 -13.35347908 2.11707478 -12.67347908 1.16082478 C-8.5997467 -3.29482001 -5.14091038 -1.97422353 0 0 Z " fill="#773E0F" transform="translate(157.6734790802002,242.0266752243042)"/>
<path d="M0 0 C2 3 2 3 2 6 C3.2375 6.28875 4.475 6.5775 5.75 6.875 C8.72448742 7.61334794 11.333856 8.44474933 14 10 C13.39773796 13.43959388 12.51667795 16.48398852 11.1796875 19.70703125 C10.64359863 21.01341553 10.64359863 21.01341553 10.09667969 22.34619141 C9.73477539 23.22194824 9.37287109 24.09770508 9 25 C8.35455242 26.60718378 7.7112695 28.21523883 7.0703125 29.82421875 C6.07121492 32.32208958 5.07201085 34.81991755 4.07250977 37.31762695 C2.5105998 41.22114372 0.94935891 45.12490614 -0.60546875 49.03125 C-4.64585908 59.17013834 -4.64585908 59.17013834 -6.71484375 64.10546875 C-9.68357436 71.19811617 -12.50742589 78.287216 -15 85.5625 C-17.1664421 91.88008266 -19.66047643 97.96423828 -22.39453125 104.05541992 C-25.2914869 110.54884391 -27.74551968 117.1784521 -30.20117188 123.84814453 C-31.68614409 127.84831112 -33.21480557 131.83138902 -34.75 135.8125 C-35.04390625 136.58384277 -35.3378125 137.35518555 -35.640625 138.14990234 C-36.87810905 141.35031681 -38.08916655 144.13374983 -40 147 C-42.6015625 147.29296875 -42.6015625 147.29296875 -45.625 147.1875 C-47.12933594 147.14689453 -47.12933594 147.14689453 -48.6640625 147.10546875 C-49.43492187 147.07066406 -50.20578125 147.03585937 -51 147 C-49.69274381 141.60229703 -48.23534542 136.29509797 -46.5625 131 C-46.34150635 130.29649414 -46.1205127 129.59298828 -45.89282227 128.86816406 C-44.62256354 124.85956451 -43.27832557 120.90461551 -41.75 116.98828125 C-39.54775621 111.15004119 -37.61223914 105.19685807 -35.9375 99.1875 C-35 96 -35 96 -33.5 92.625 C-32.14494925 89.35029402 -31.42833802 86.31082112 -30.7265625 82.85546875 C-28.64251406 74.66493428 -25.41844857 66.70708197 -22.40234375 58.8203125 C-20.91891195 54.88014341 -19.86284273 50.8910307 -18.84375 46.80859375 C-18.02756317 44.09174963 -16.95029066 41.58853414 -15.80712891 38.99682617 C-14.2220945 35.07547215 -13.11548139 30.99566094 -11.9375 26.9375 C-11.42661411 25.19636999 -10.91491517 23.45547831 -10.40234375 21.71484375 C-10.16370605 20.9038623 -9.92506836 20.09288086 -9.67919922 19.25732422 C-8.84487151 16.48442917 -7.93990988 13.73878047 -7 11 C-6.34 11 -5.68 11 -5 11 C-4.67 9.02 -4.34 7.04 -4 5 C-1.525 5.495 -1.525 5.495 1 6 C0.505 3.03 0.505 3.03 0 0 Z " fill="#EF827D" transform="translate(366,261)"/>
<path d="M0 0 C2.53553009 0.94371748 4.95125538 1.51699416 7.61328125 1.97265625 C6.99453125 3.58140625 6.99453125 3.58140625 6.36328125 5.22265625 C3.34879066 13.3089201 0.50046198 21.27563139 -0.89453125 29.81640625 C-1.38671875 31.97265625 -1.38671875 31.97265625 -2.3828125 33.9296875 C-3.57147519 36.3486392 -3.92097107 38.49872159 -4.32421875 41.16015625 C-5.05652892 45.49635506 -6.08541817 49.48706392 -7.60546875 53.609375 C-8.73087249 57.01372133 -9.54526629 60.48995614 -10.38671875 63.97265625 C-11.07183018 66.78574573 -11.75995888 69.5980808 -12.44921875 72.41015625 C-12.62259766 73.12880859 -12.79597656 73.84746094 -12.97460938 74.58789062 C-14.2739368 79.8598743 -14.2739368 79.8598743 -15.38671875 80.97265625 C-15.69098435 82.38252063 -15.95392783 83.80134436 -16.19921875 85.22265625 C-17.42662931 91.63450243 -19.4062142 97.7603705 -21.38671875 103.97265625 C-25.26260894 116.46836474 -29.09923225 129.07955051 -31.38671875 141.97265625 C-35.34671875 141.97265625 -39.30671875 141.97265625 -43.38671875 141.97265625 C-43.19335938 141.11285156 -43 140.25304687 -42.80078125 139.3671875 C-41.4826602 133.38343997 -40.27317993 127.48223053 -39.44921875 121.41015625 C-38.64998069 115.83580944 -37.1721332 110.73461543 -35.2890625 105.43359375 C-34.50123875 102.41189746 -34.16452833 99.8318841 -33.9375 96.73828125 C-33.48999755 91.03709037 -32.19816342 85.83341819 -30.63671875 80.34765625 C-28.03879729 70.85413365 -25.94153112 61.33390945 -24.12402344 51.66162109 C-23.01837479 45.84398635 -21.66721238 40.17793769 -20.06274414 34.47802734 C-19.16163497 31.13848877 -18.54123447 27.81884305 -17.94921875 24.41015625 C-16.36451641 15.53669565 -14.39020976 6.7595407 -12.38671875 -2.02734375 C-13.14984375 -1.51171875 -13.91296875 -0.99609375 -14.69921875 -0.46484375 C-15.58609375 0.00953125 -16.47296875 0.48390625 -17.38671875 0.97265625 C-18.37671875 0.64265625 -19.36671875 0.31265625 -20.38671875 -0.02734375 C-20.71671875 -0.68734375 -21.04671875 -1.34734375 -21.38671875 -2.02734375 C-13.31264467 -4.04586227 -7.57810269 -3.05975492 0 0 Z " fill="#EF817B" transform="translate(336.38671875,266.02734375)"/>
<path d="M0 0 C8.38156489 0.38624723 16.01265489 2.5255343 24 5 C23.01 5.33 22.02 5.66 21 6 C20.85345102 7.43742722 20.70782018 8.87494803 20.5625 10.3125 C20.46710938 11.23933594 20.37171875 12.16617187 20.2734375 13.12109375 C20.10620718 14.88179017 19.96028287 16.64488071 19.8515625 18.41015625 C19.39067787 25.33439918 18.05839644 31.97923252 16.65527344 38.75927734 C13.58141837 53.72988633 11.28157867 68.84468103 9.07836914 83.96459961 C8.30558787 89.19267443 7.39100794 94.37658744 6.375 99.5625 C5.3673655 104.76168625 4.6966765 109.82680506 4.30859375 115.1015625 C3.84856031 119.42238292 2.994797 123.66096333 2.1628418 127.921875 C0.92907927 134.25523984 -0.070657 140.61486692 -1 147 C-4.63 147 -8.26 147 -12 147 C-12.14814433 138.62631794 -11.59474806 130.50884808 -10.6875 122.1875 C-10.55142334 120.90343262 -10.41534668 119.61936523 -10.27514648 118.29638672 C-9.40059066 110.2081315 -8.36327101 102.15847796 -7.19824219 94.10791016 C-5.61415858 82.80033663 -4.56273205 71.42818569 -3.44555664 60.06689453 C-2.60555185 51.5748357 -1.64541497 43.12724965 -0.47973633 34.6730957 C0.37203389 28.15152676 0.99143566 21.60825405 1.625 15.0625 C1.76017928 13.68552355 1.89559512 12.3085703 2.03125 10.93164062 C2.35647522 7.62131249 2.67936403 4.31077524 3 1 C2.01 0.67 1.02 0.34 0 0 Z " fill="#EF807A" transform="translate(284,261)"/>
<path d="M0 0 C6.05862319 -0.49234861 11.06114695 0.13944153 16.86328125 2.015625 C18.01739502 2.38461914 19.17150879 2.75361328 20.3605957 3.13378906 C21.23159912 3.41963867 22.10260254 3.70548828 23 4 C22.94465088 4.84256348 22.88930176 5.68512695 22.83227539 6.55322266 C21.86851407 21.38572003 20.95750354 36.20194007 20.5625 51.0625 C20.18072532 64.85231626 19.36224051 78.60780323 18.5 92.375 C18.43410675 93.43872833 18.3682135 94.50245667 18.30032349 95.59841919 C18.10981217 98.65698206 17.91519294 101.71525038 17.71875 104.7734375 C17.66146225 105.68684402 17.6041745 106.60025055 17.54515076 107.54133606 C17.2873734 111.46600147 16.98352807 115.36147408 16.47485352 119.26220703 C16.05873312 122.53768432 15.80901666 125.7344191 15.68359375 129.03125 C15.64169922 130.08828125 15.59980469 131.1453125 15.55664062 132.234375 C15.51732422 133.31203125 15.47800781 134.3896875 15.4375 135.5 C15.39431641 136.60859375 15.35113281 137.7171875 15.30664062 138.859375 C15.20137844 141.57280012 15.10026719 144.28638572 15 147 C11.37 147 7.74 147 4 147 C4 98.82 4 50.64 4 1 C2.68 0.67 1.36 0.34 0 0 Z " fill="#EF7F7A" transform="translate(246,261)"/>
<path d="M0 0 C4.56780924 0.43502945 8.92772838 0.92856637 13.375 2.0625 C18.57431962 3.30481531 23.68429993 3.17884598 29 3 C28.34 3.66 27.68 4.32 27 5 C25.68 5 24.36 5 23 5 C23.05534912 5.74121094 23.11069824 6.48242188 23.16772461 7.24609375 C24.26117952 22.11981139 25.1520705 36.96634186 25.5625 51.875 C25.69700387 68.90334534 25.69700387 68.90334534 27.5 85.79638672 C27.99535588 88.97024409 28.18888206 92.00945551 28.28125 95.21875 C28.33647827 96.97783691 28.33647827 96.97783691 28.39282227 98.77246094 C28.42819092 100.00254883 28.46355957 101.23263672 28.5 102.5 C28.84266578 113.6352611 28.84266578 113.6352611 29.5625 124.75 C30.16936341 132.16511234 30.08688448 139.56655005 30 147 C26.37 147 22.74 147 19 147 C18.37306281 141.41688253 17.74818813 135.8335372 17.125 130.25 C16.98677826 129.01183533 16.98677826 129.01183533 16.84576416 127.74865723 C15.72958747 117.73604667 14.61490554 107.72432723 13.68408203 97.69238281 C13.25991442 93.22621091 12.71612301 88.78473111 12.13671875 84.3359375 C10.6281338 72.56045689 9.51374147 60.73979003 8.34057617 48.92724609 C8.00492112 45.54786332 7.66569545 42.16885018 7.32541561 38.78993034 C6.99494744 35.50337621 6.66753961 32.21651922 6.33984375 28.9296875 C6.22003647 27.73971161 6.10022919 26.54973572 5.97679138 25.32369995 C5.17572513 17.22412086 4.54179795 9.12094868 4 1 C2.68 0.67 1.36 0.34 0 0 Z " fill="#EF807B" transform="translate(209,261)"/>
<path d="M0 0 C8.19033227 0.41005616 16.04043449 0.9053775 24 3 C24.07347656 4.03833984 24.07347656 4.03833984 24.1484375 5.09765625 C25.0813349 17.30574464 26.77754405 29.24259812 29.27734375 41.2265625 C30.25692919 46.341587 30.88585544 51.46914291 31.53515625 56.63671875 C32.00486794 60.035221 32.66770468 63.31285755 33.47290039 66.64379883 C35.59197002 76.11630508 36.70442025 85.8269299 38 95.4375 C40.27284322 113.35525212 40.27284322 113.35525212 44 131 C44.99018771 135.75290098 45.08334466 140.16600943 45 145 C41.7 145 38.4 145 35 145 C34.60167969 143.37191406 34.60167969 143.37191406 34.1953125 141.7109375 C33.83866918 140.26559353 33.4818912 138.82028278 33.125 137.375 C32.95097656 136.66214844 32.77695313 135.94929687 32.59765625 135.21484375 C31.81243125 132.04486136 30.9892824 128.96897332 29.921875 125.87890625 C28.92026111 122.7509849 28.50136656 119.82306332 28.125 116.5625 C27.25819796 110.07854774 25.75968932 103.94893662 24.01171875 97.65234375 C21.40818587 88.25348951 19.6037242 78.98967284 18.52734375 69.3125 C18.03281782 66.20614453 17.1739165 63.89270745 16 61 C15.4508709 58.39438242 14.94894278 55.80962186 14.5 53.1875 C13.54824017 47.72272517 12.40630345 42.36629876 11 37 C8.68609117 28.08161455 6.55236572 19.21592067 4.95141602 10.140625 C4.45416979 7.33163263 3.90419208 4.71257624 3 2 C2.01 1.34 1.02 0.68 0 0 Z " fill="#EF807A" transform="translate(172,263)"/>
<path d="M0 0 C8.16240568 -0.33853295 15.95072024 0.70098079 24 2 C24 3.98 24 5.96 24 8 C24.66 8 25.32 8 26 8 C28.29612756 17.41002278 28.29612756 17.41002278 28 22 C28.66 22 29.32 22 30 22 C30.10957031 22.71285156 30.21914062 23.42570312 30.33203125 24.16015625 C30.49058594 25.11792969 30.64914063 26.07570313 30.8125 27.0625 C30.96332031 28.00222656 31.11414063 28.94195312 31.26953125 29.91015625 C31.93217188 33.11284582 31.93217188 33.11284582 33.4609375 36.390625 C35.04688578 40.10995548 35.98230679 43.75371927 36.8125 47.6875 C38.4874076 55.2287925 40.58964954 62.58775614 42.89379883 69.9597168 C44.34698715 74.64765335 45.57770902 79.31231202 46.56591797 84.12109375 C46.98165188 86.13883454 46.98165188 86.13883454 48 88.5 C49.20823661 91.52059153 49.80932864 94.5330238 50.4375 97.71875 C50.94682441 100.04303652 50.94682441 100.04303652 51.97265625 102.296875 C53.27005495 105.71056283 53.83805859 109.16513832 54.4375 112.75 C55.35274986 117.92629833 56.42299921 122.8153153 58.23828125 127.76171875 C59.82068791 132.41155987 60.84855243 137.2297172 62 142 C58.04 142 54.08 142 50 142 C49.67 138.7 49.34 135.4 49 132 C48.34 132 47.68 132 47 132 C46.74605469 130.94941406 46.49210937 129.89882813 46.23046875 128.81640625 C43.6365121 116.24112497 43.6365121 116.24112497 38.5 104.66015625 C36.79465884 101.63584029 36.21308126 99.02741879 35.5625 95.625 C34.75101462 91.81956068 34.05224191 88.59426614 31.9375 85.3125 C29.82275052 81.69696057 29.31801666 78.927637 28.62109375 74.86328125 C27.62274272 70.26082021 25.92413147 65.93379535 24.29296875 61.5234375 C23.10421132 58.28398372 22.00451197 55.03116725 20.9375 51.75 C19.47167306 47.28130491 17.80924466 42.95508588 15.9296875 38.64453125 C15.1380439 36.39267109 14.60811215 34.30418911 14.12109375 31.9765625 C12.85406913 26.05132311 11.0475155 20.3246949 9.1875 14.5625 C8.85685547 13.47517578 8.52621094 12.38785156 8.18554688 11.26757812 C7.84974609 10.23181641 7.51394531 9.19605469 7.16796875 8.12890625 C6.87172607 7.19119385 6.5754834 6.25348145 6.27026367 5.28735352 C4.64463134 2.36009053 3.15098297 1.90543992 0 1 C0 0.67 0 0.34 0 0 Z " fill="#F0807B" transform="translate(134,266)"/>
<path d="M0 0 C-0.33 1.98 -0.66 3.96 -1 6 C-1.66 6 -2.32 6 -3 6 C-2.938125 6.66 -2.87625 7.32 -2.8125 8 C-3.01452078 11.23233252 -3.98652737 13.72332235 -5.14672852 16.72167969 C-6.61318499 20.63726533 -7.82363916 24.63276302 -9.0625 28.625 C-11.31418607 35.83947022 -13.6273853 43.01259944 -16.1875 50.125 C-16.86471342 52.02160069 -17.5419041 53.91820953 -18.21875 55.81494141 C-18.77190274 57.36204048 -19.32676015 58.90853056 -19.8828125 60.45458984 C-20.82294604 63.07205197 -21.75566796 65.69207239 -22.6875 68.3125 C-22.98487061 69.13572754 -23.28224121 69.95895508 -23.58862305 70.80712891 C-25.26349454 75.53858148 -26.58268664 80.19067048 -27.5324707 85.12158203 C-28.18209457 87.7316113 -29.59725739 89.72054326 -31 92 C-31.49950599 93.91926367 -31.99462893 95.83990901 -32.45556641 97.76879883 C-33.34114466 101.39808121 -34.38953693 104.97736318 -35.4375 108.5625 C-35.64181641 109.27857422 -35.84613281 109.99464844 -36.05664062 110.73242188 C-37.39780441 115.32413214 -39.10031053 119.60274926 -41 124 C-42.12075966 127.12697759 -43.15698412 130.27979578 -44.1875 133.4375 C-44.59645508 134.67790039 -44.59645508 134.67790039 -45.01367188 135.94335938 C-45.67855197 137.96132879 -46.33966791 139.98053778 -47 142 C-50.3 142 -53.6 142 -57 142 C-56.52778294 132.24084737 -53.76322074 123.30788027 -51 114 C-50.73960937 113.11731445 -50.47921875 112.23462891 -50.2109375 111.32519531 C-45.68468501 96.00514895 -45.68468501 96.00514895 -43.8515625 90.63671875 C-42.88080852 87.90852133 -42.88080852 87.90852133 -42.5625 84.5625 C-42.04782073 81.30286461 -41.11280457 78.88864554 -39.75 75.9140625 C-38.61803996 73.02520614 -38.15578346 70.07124759 -37.59765625 67.02734375 C-36.84154092 63.19734777 -35.93511193 59.41470923 -35 55.625 C-34.8337915 54.9347876 -34.66758301 54.2445752 -34.49633789 53.53344727 C-33.6439741 50.10847932 -32.6014824 47.12956353 -31 44 C-30.61716427 42.36497239 -30.28557223 40.7172891 -30 39.0625 C-29.32902358 35.46648575 -28.38905735 32.38582729 -27 29 C-26.66756009 27.60878088 -26.35754337 26.21212722 -26.0625 24.8125 C-21.90263703 5.28064338 -21.90263703 5.28064338 -17.25 1.625 C-11.50150808 0.02819669 -5.91292182 -0.10373547 0 0 Z " fill="#F7ABA1" transform="translate(362,266)"/>
<path d="M0 0 C5.35039425 1.4343919 10.55835464 1.28566703 16.07528687 1.29580688 C17.32462006 1.30585251 18.57395325 1.31589813 19.86114502 1.32624817 C23.27394015 1.35178575 26.68657009 1.36867384 30.09942198 1.3816762 C33.67090264 1.39734155 37.24229982 1.42412086 40.8137207 1.44970703 C47.57085596 1.49643469 54.32800702 1.53320782 61.08522093 1.5663799 C68.78054949 1.60464387 76.47579406 1.65404279 84.17105174 1.70436406 C99.9953519 1.80759444 115.81969922 1.89688365 131.64413452 1.97695923 C131.64413452 2.30695923 131.64413452 2.63695923 131.64413452 2.97695923 C107.88413452 2.97695923 84.12413452 2.97695923 59.64413452 2.97695923 C58.98413452 7.26695923 58.32413452 11.55695923 57.64413452 15.97695923 C57.14913452 17.46195923 57.14913452 17.46195923 56.64413452 18.97695923 C54.1192249 19.83236085 51.73005464 20.50885828 49.14413452 21.10195923 C44.52450428 21.8539375 44.52450428 21.8539375 40.64413452 23.97695923 C35.70990624 24.21192248 31.34773379 24.01958174 26.51913452 22.97695923 C20.02454164 21.60233681 15.50943308 21.58809696 9.27694702 24.01602173 C2.31463122 26.3860147 -3.84283848 26.24457314 -11.10586548 25.72695923 C-12.29180298 25.66121704 -13.47774048 25.59547485 -14.69961548 25.52774048 C-17.58692571 25.36474716 -20.47120867 25.18089895 -23.35586548 24.97695923 C-23.68586548 24.31695923 -24.01586548 23.65695923 -24.35586548 22.97695923 C-23.57852173 21.03164673 -23.57852173 21.03164673 -22.41836548 18.85195923 C-21.84795532 17.76527954 -21.84795532 17.76527954 -21.26602173 16.65664673 C-20.96567017 16.10234985 -20.6653186 15.54805298 -20.35586548 14.97695923 C-19.69586548 14.97695923 -19.03586548 14.97695923 -18.35586548 14.97695923 C-18.43836548 14.27570923 -18.52086548 13.57445923 -18.60586548 12.85195923 C-18.26871785 8.97476156 -16.67321871 7.06676354 -14.35586548 3.97695923 C-13.69586548 3.04883423 -13.03586548 2.12070923 -12.35586548 1.16445923 C-8.40940327 -3.15198381 -4.96412714 -2.15568525 0 0 Z " fill="#936139" transform="translate(157.35586547851563,242.02304077148438)"/>
<path d="M0 0 C2.97 0 5.94 0 9 0 C6.74030928 2.33030606 4.57234766 4.56127436 1.9921875 6.5390625 C-3.69158254 10.96443327 -5.94632548 14.86422401 -7 22 C-7.76612352 30.79158142 -7.68214077 40.24868868 -1.875 47.3125 C1.23555004 50.54747204 4.58981821 52.90321892 8.49609375 55.08984375 C8.99238281 55.39019531 9.48867187 55.69054687 10 56 C10 56.33 10 56.66 10 57 C2.96821365 57.12336467 -4.57106072 57.21446964 -11 54 C-13.20472523 51.82760212 -15.09738886 49.43757515 -17 47 C-17.49628906 46.40703125 -17.99257812 45.8140625 -18.50390625 45.203125 C-23.75611126 37.72135149 -23.20328502 27.73263523 -22 19 C-20.29238687 13.29899237 -17.58996007 8.82901431 -13 5 C-10.01953125 4.0234375 -10.01953125 4.0234375 -6.8125 3.375 C-4.86230373 2.97411322 -2.91954029 2.52852698 -1 2 C-0.67 1.34 -0.34 0.68 0 0 Z " fill="#F8CCC4" transform="translate(160,186)"/>
<path d="M0 0 C1.11084961 0.02030273 1.11084961 0.02030273 2.24414062 0.04101562 C4.05891075 0.07614021 5.87330288 0.12994028 7.6875 0.1875 C5.48536019 1.6555932 3.38577348 2.89415937 1.0625 4.125 C-2.55375551 5.83693778 -2.55375551 5.83693778 -3.3125 9.1875 C-3.910625 9.744375 -4.50875 10.30125 -5.125 10.875 C-12.61165138 18.78946004 -12.07924022 27.92406956 -12.3125 38.1875 C-15.9425 38.1875 -19.5725 38.1875 -23.3125 38.1875 C-26.61197844 31.58854313 -26.41068062 22.7817873 -24.6953125 15.60546875 C-22.31846287 10.27333264 -17.94289933 6.59347343 -13.3125 3.1875 C-12.57515625 2.630625 -11.8378125 2.07375 -11.078125 1.5 C-7.37829988 -0.25584921 -3.99985427 -0.13940511 0 0 Z " fill="#F7CEC7" transform="translate(197.3125,146.8125)"/>
<path d="M0 0 C-1.00101339 2.83620461 -2.06839917 5.09670227 -3.8125 7.5625 C-7.08534956 12.24329239 -8.89267391 17.73168477 -11 23 C-15.95 23.33 -20.9 23.66 -26 24 C-25 19 -25 19 -23 17 C-22.67 16.01 -22.34 15.02 -22 14 C-21.34 14 -20.68 14 -20 14 C-20.0825 13.29875 -20.165 12.5975 -20.25 11.875 C-19.91285238 7.99780233 -18.31735324 6.08980431 -16 3 C-15.34 2.071875 -14.68 1.14375 -14 0.1875 C-9.5557257 -4.67342501 -5.20585501 -2.7888509 0 0 Z " fill="#7C4718" transform="translate(159,243)"/>
<path d="M0 0 C0.7425 0.0825 1.485 0.165 2.25 0.25 C1.50818505 1.35968221 0.75610453 2.46250456 0 3.5625 C-0.62648437 4.48482422 -0.62648437 4.48482422 -1.265625 5.42578125 C-2.75 7.25 -2.75 7.25 -4.671875 8.55859375 C-15.76121905 17.58431926 -17.06289415 36.20579135 -18.75 49.25 C-20.73 49.25 -22.71 49.25 -24.75 49.25 C-24.52703292 32.3247717 -20.93780841 19.0788183 -9.0625 6.375 C-8.299375 5.67375 -7.53625 4.9725 -6.75 4.25 C-6.09 3.486875 -5.43 2.72375 -4.75 1.9375 C-2.75 0.25 -2.75 0.25 0 0 Z " fill="#F6D2CD" transform="translate(232.75,97.75)"/>
<path d="M0 0 C1.98 0.99 1.98 0.99 4 2 C4 2.99 4 3.98 4 5 C53.5 5 103 5 154 5 C154 5.33 154 5.66 154 6 C103.84 6 53.68 6 2 6 C1.34 4.02 0.68 2.04 0 0 Z " fill="#F4CBCD" transform="translate(172,403)"/>
<path d="M0 0 C0.66 0.33 1.32 0.66 2 1 C1.60167969 1.64066406 1.20335937 2.28132812 0.79296875 2.94140625 C-5.08404634 12.5362411 -8.11049506 19.54892106 -7 31 C-6.25810289 33.63485881 -5.31933446 35.57242459 -4 38 C-3.67 38.99 -3.34 39.98 -3 41 C-2.01 41 -1.02 41 0 41 C0.66 42.65 1.32 44.3 2 46 C3.98 45.505 3.98 45.505 6 45 C6 45.66 6 46.32 6 47 C3.8125 47.3125 3.8125 47.3125 1 47 C-1.5 45.0625 -1.5 45.0625 -4 42 C-4.47050781 41.44957031 -4.94101563 40.89914063 -5.42578125 40.33203125 C-10.75079861 32.81700676 -10.21156979 22.79276054 -9 14 C-7.31635374 8.37900777 -4.59800602 3.74652343 0 0 Z " fill="#F7E2DE" transform="translate(147,191)"/>
<path d="M0 0 C0.33 0 0.66 0 1 0 C1.06058594 0.83144531 1.12117188 1.66289062 1.18359375 2.51953125 C1.30927734 4.14955078 1.30927734 4.14955078 1.4375 5.8125 C1.55931641 7.43091797 1.55931641 7.43091797 1.68359375 9.08203125 C1.90212461 12.05989905 1.90212461 12.05989905 3 15 C8.445 15.495 8.445 15.495 14 16 C14 13.03 14 10.06 14 7 C14.33 7 14.66 7 15 7 C15 10.3 15 13.6 15 17 C6.09 17.99 6.09 17.99 -3 19 C-3 18.67 -3 18.34 -3 18 C-5.64 17.67 -8.28 17.34 -11 17 C-11.33 17.99 -11.66 18.98 -12 20 C-15.3 20.66 -18.6 21.32 -22 22 C-17.9953824 16.72118589 -11.81263119 15.63748174 -5.5703125 14.59375 C-3.71816128 14.35646372 -1.8593358 14.17216072 0 14 C0 9.38 0 4.76 0 0 Z " fill="#F9E3DF" transform="translate(171,169)"/>
<path d="M0 0 C7.37903226 0.60483871 7.37903226 0.60483871 10.0625 2.3125 C11 4 11 4 10.55859375 6.10546875 C10.37425781 6.73066406 10.18992187 7.35585937 10 8 C9.43152344 7.97679688 8.86304688 7.95359375 8.27734375 7.9296875 C3.07441352 7.80808312 -1.07312243 8.32276508 -6 10 C-6 13.3 -6 16.6 -6 20 C-6.66 19.67 -7.32 19.34 -8 19 C-8 15.04 -8 11.08 -8 7 C-4.42725897 5.57090359 -1.69026484 4.63261683 2 4 C2 3.34 2 2.68 2 2 C1.34 1.34 0.68 0.68 0 0 Z " fill="#EA9C96" transform="translate(265,95)"/>
<path d="M0 0 C1.75917906 2.6387686 2.92919884 4.96078829 4.125 7.875 C4.47820312 8.71804688 4.83140625 9.56109375 5.1953125 10.4296875 C6.03182698 13.10166094 6.14952633 15.21881027 6 18 C6.66 18 7.32 18 8 18 C11.8741903 24.6276327 13.6212008 29.29711007 13 37 C10.43970236 33.90845904 9.06381785 30.94754361 7.6875 27.1875 C6.295937 23.42134325 4.88423483 19.68082778 3.30859375 15.98828125 C3.02862549 15.32352783 2.74865723 14.65877441 2.46020508 13.97387695 C1.91399825 12.6830023 1.35820367 11.39613196 0.79174805 10.11401367 C-0.78460333 6.34109871 -1.26371997 3.92496556 0 0 Z " fill="#F3C9C5" transform="translate(152,347)"/>
<path d="M0 0 C4.52530545 3.73719045 5.12988593 9.45045356 6 15 C5.96031222 18.14856392 5.57050832 20.88813644 5 24 C6.14275391 24.14695313 6.14275391 24.14695313 7.30859375 24.296875 C14.12804642 25.28446115 19.88150371 26.81714587 26 30 C24 31 24 31 22.29296875 30.4765625 C21.59816406 30.19554687 20.90335937 29.91453125 20.1875 29.625 C14.20428221 27.48394658 8.31632513 27.33243816 2 27 C2 20.4 2 13.8 2 7 C1.34 6.67 0.68 6.34 0 6 C0 4.02 0 2.04 0 0 Z " fill="#F2C6C1" transform="translate(323,159)"/>
<path d="M0 0 C1.44895667 2.29809749 2.10686405 3.43997667 1.58789062 6.15966797 C1.28044922 6.92939941 0.97300781 7.69913086 0.65625 8.4921875 C0.15061523 9.78829956 0.15061523 9.78829956 -0.36523438 11.1105957 C-0.73970703 12.02284912 -1.11417969 12.93510254 -1.5 13.875 C-2.05397461 15.27335083 -2.05397461 15.27335083 -2.61914062 16.69995117 C-5.607164 24.19129735 -8.72899319 31.62784451 -12 39 C-12.33 39 -12.66 39 -13 39 C-13 36.69 -13 34.38 -13 32 C-12.34 32 -11.68 32 -11 32 C-11 30.02 -11 28.04 -11 26 C-10.34 26 -9.68 26 -9 26 C-8.34 23.36 -7.68 20.72 -7 18 C-6.34 18 -5.68 18 -5 18 C-5 16.35 -5 14.7 -5 13 C-4.34 12.67 -3.68 12.34 -3 12 C-2.59270772 9.67843403 -2.25561323 7.3431213 -2 5 C-1.34 5 -0.68 5 0 5 C0 3.35 0 1.7 0 0 Z " fill="#EDAFAD" transform="translate(375,276)"/>
<path d="M0 0 C3.30543527 2.67582856 5.03555495 5.92571172 6 10 C6.6320331 17.72765806 6.98753741 24.15367254 3 31 C2.67 31 2.34 31 2 31 C2 23.08 2 15.16 2 7 C1.34 6.67 0.68 6.34 0 6 C0 4.02 0 2.04 0 0 Z " fill="#EBB0AC" transform="translate(356,197)"/>
<path d="M0 0 C1.11503906 0.00966797 2.23007812 0.01933594 3.37890625 0.02929688 C5.11720703 0.06700195 5.11720703 0.06700195 6.890625 0.10546875 C8.65212891 0.12577148 8.65212891 0.12577148 10.44921875 0.14648438 C13.34681798 0.18182095 16.24348927 0.23115896 19.140625 0.29296875 C18.150625 0.78796875 18.150625 0.78796875 17.140625 1.29296875 C17.140625 1.95296875 17.140625 2.61296875 17.140625 3.29296875 C8.230625 3.29296875 -0.679375 3.29296875 -9.859375 3.29296875 C-5.6262624 0.1181343 -4.95348812 -0.0758187 0 0 Z " fill="#6F3505" transform="translate(310.859375,244.70703125)"/>
<path d="M0 0 C2.96828429 3.35128872 4.29795092 5.60295579 5 10 C5.845625 9.97679687 6.69125 9.95359375 7.5625 9.9296875 C18.61963305 9.75377857 25.4045923 10.73047966 34 18 C33.01 18.495 33.01 18.495 32 19 C31.01 18.67 30.02 18.34 29 18 C29 17.34 29 16.68 29 16 C28.21625 15.690625 27.4325 15.38125 26.625 15.0625 C24 14 24 14 22 13 C20.65115298 12.79467868 19.2952783 12.63410156 17.9375 12.5 C16.74253906 12.37625 16.74253906 12.37625 15.5234375 12.25 C14.69070313 12.1675 13.85796875 12.085 13 12 C11.35380842 11.83690981 9.70795072 11.67040266 8.0625 11.5 C7.33160156 11.4278125 6.60070312 11.355625 5.84765625 11.28125 C4 11 4 11 2 10 C2 8.02 2 6.04 2 4 C1.34 4 0.68 4 0 4 C0 2.68 0 1.36 0 0 Z " fill="#F3C2BF" transform="translate(286,136)"/>
<path d="M0 0 C2.125 1.375 2.125 1.375 4 4 C3.86689726 8.28030382 3.29305963 12.52902553 0.41015625 15.80859375 C-0.05519531 16.20175781 -0.52054688 16.59492188 -1 17 C-1 15.35 -1 13.7 -1 12 C-1.66 12.66 -2.32 13.32 -3 14 C-3.40652968 8.57960425 -2.03993514 4.92984325 0 0 Z " fill="#F6CCC6" transform="translate(214,120)"/>
<path d="M0 0 C0.99 0 1.98 0 3 0 C3.92470553 4.71599818 4.22923777 7.67265609 2 12 C0.35 12 -1.3 12 -3 12 C-2.67 9.36 -2.34 6.72 -2 4 C-1.34 4 -0.68 4 0 4 C0 2.68 0 1.36 0 0 Z " fill="#7C4312" transform="translate(139,253)"/>
<path d="M0 0 C8.16240568 -0.33853295 15.95072024 0.70098079 24 2 C24 2.33 24 2.66 24 3 C23.24074219 2.96519531 22.48148438 2.93039062 21.69921875 2.89453125 C20.70535156 2.86746094 19.71148437 2.84039062 18.6875 2.8125 C17.70136719 2.77769531 16.71523437 2.74289062 15.69921875 2.70703125 C12.95425611 2.75721892 12.95425611 2.75721892 11.14453125 4.51171875 C10.76683594 5.00285156 10.38914063 5.49398438 10 6 C9.01 5.67 8.02 5.34 7 5 C7 4.34 7 3.68 7 3 C4.69 2.34 2.38 1.68 0 1 C0 0.67 0 0.34 0 0 Z " fill="#E48272" transform="translate(134,266)"/>
<path d="M0 0 C0.66 0 1.32 0 2 0 C5.8741903 6.6276327 7.6212008 11.29711007 7 19 C2.36415367 13.92264449 0.85222894 6.6473857 0 0 Z " fill="#F2C4C1" transform="translate(158,365)"/>
<path d="M0 0 C1.25554687 -0.01417969 2.51109375 -0.02835937 3.8046875 -0.04296875 C7.125 0.1875 7.125 0.1875 10.125 2.1875 C9.55652344 2.16429688 8.98804688 2.14109375 8.40234375 2.1171875 C3.19941352 1.99558312 -0.94812243 2.51026508 -5.875 4.1875 C-5.875 7.4875 -5.875 10.7875 -5.875 14.1875 C-6.535 13.8575 -7.195 13.5275 -7.875 13.1875 C-7.90186553 11.20840602 -7.92133375 9.22921029 -7.9375 7.25 C-7.94910156 6.14785156 -7.96070313 5.04570313 -7.97265625 3.91015625 C-7.78453964 -1.33453472 -4.54822664 0.02325269 0 0 Z " fill="#F6CAC5" transform="translate(264.875,100.8125)"/>
<path d="M0 0 C0.66 0.33 1.32 0.66 2 1 C0.56641087 5.73084414 -2.19372076 9.84024187 -6 13 C-7.32 13 -8.64 13 -10 13 C-9.8125 11.1875 -9.8125 11.1875 -9 9 C-7.35857037 7.9590934 -5.69287785 6.95495674 -4 6 C-4 5.34 -4 4.68 -4 4 C-2.68 4 -1.36 4 0 4 C0 2.68 0 1.36 0 0 Z " fill="#E5ADA4" transform="translate(356,227)"/>
<path d="M0 0 C-5.21277514 7.99007337 -5.21277514 7.99007337 -9 9 C-9.99 8.67 -10.98 8.34 -12 8 C-10.16929985 2.50789954 -5.85859199 -0.86155765 0 0 Z " fill="#F4DDDC" transform="translate(235,98)"/>
<path d="M0 0 C-0.33 1.98 -0.66 3.96 -1 6 C-1.66 6 -2.32 6 -3 6 C-3 6.66 -3 7.32 -3 8 C-3.66 8 -4.32 8 -5 8 C-5.33 6.35 -5.66 4.7 -6 3 C-6.99 3 -7.98 3 -9 3 C-11.00309329 2.68578929 -13.00371336 2.3548954 -15 2 C-15 1.67 -15 1.34 -15 1 C-9.91913204 0.15318867 -5.15171623 -0.09038099 0 0 Z " fill="#ECA192" transform="translate(362,266)"/>
<path d="M0 0 C0.66 1.32 1.32 2.64 2 4 C2.99 3.67 3.98 3.34 5 3 C6.26305335 8.07476794 7.27036084 12.72796354 7 18 C4.43320517 15.43320517 3.66651446 12.94989318 2.375 9.5625 C1.92898437 8.40878906 1.48296875 7.25507813 1.0234375 6.06640625 C0 3 0 3 0 0 Z " fill="#F4C9C3" transform="translate(142,326)"/>
<path d="M0 0 C8.57142857 2 8.57142857 2 12 4 C11.25 8.75 11.25 8.75 9 11 C9 9.02 9 7.04 9 5 C7.6078125 4.8453125 7.6078125 4.8453125 6.1875 4.6875 C2.97428501 3.99445363 1.92541432 3.56721909 0 1 C0 0.67 0 0.34 0 0 Z " fill="#EEB9B5" transform="translate(368,267)"/>
<path d="M0 0 C2.49398079 3.74097119 2.29925803 5.84995522 2.3125 10.3125 C2.32925781 11.60800781 2.34601563 12.90351563 2.36328125 14.23828125 C1.98295287 18.17652027 0.98910745 20.61484353 -1 24 C-1.33 24 -1.66 24 -2 24 C-2 21.36 -2 18.72 -2 16 C-1.34 15.67 -0.68 15.34 0 15 C0 10.05 0 5.1 0 0 Z " fill="#F7D3CF" transform="translate(360,204)"/>
<path d="M0 0 C0.99 0 1.98 0 3 0 C3 0.66 3 1.32 3 2 C3.66 2 4.32 2 5 2 C5 3.98 5 5.96 5 8 C3.35 8 1.7 8 0 8 C-0.66666667 6 -1.33333333 4 -2 2 C-1.34 1.34 -0.68 0.68 0 0 Z " fill="#6D380D" transform="translate(347,240)"/>
<path d="M0 0 C0.66 0 1.32 0 2 0 C0.49829538 5.98551772 -0.94226163 11.61255621 -4 17 C-5.231394 13.30581799 -4.64432764 10.7943739 -4 7 C-3.34 7 -2.68 7 -2 7 C-1.855625 6.030625 -1.71125 5.06125 -1.5625 4.0625 C-1 1 -1 1 0 0 Z " fill="#ECADAB" transform="translate(349,344)"/>
<path d="M0 0 C0.99 0.33 1.98 0.66 3 1 C3.9140625 3.21484375 3.9140625 3.21484375 4.625 5.9375 C5.56885598 9.56119775 5.56885598 9.56119775 7 13 C6.01 14.485 6.01 14.485 5 16 C4.15787744 14.08717875 3.32661136 12.16957527 2.5 10.25 C2.0359375 9.18265625 1.571875 8.1153125 1.09375 7.015625 C0 4 0 4 0 0 Z " fill="#F5D2CC" transform="translate(129,293)"/>
<path d="M0 0 C0.66 0.33 1.32 0.66 2 1 C2 4 2 4 0.64453125 5.5 C-6.61748196 11.44587009 -6.61748196 11.44587009 -10 13 C-12.3125 12.6875 -12.3125 12.6875 -14 12 C-12.948125 11.443125 -11.89625 10.88625 -10.8125 10.3125 C-6.19557613 7.67692807 -2.95055478 4.42583217 0 0 Z " fill="#EFA89D" transform="translate(302,230)"/>
<path d="M0 0 C0.66 0 1.32 0 2 0 C1.75 1.875 1.75 1.875 1 4 C-0.32467746 4.6837045 -1.65863633 5.34964186 -3 6 C-4.04974648 7.83819689 -4.04974648 7.83819689 -5 10 C-6.33333333 12.66666667 -7.66666667 15.33333333 -9 18 C-9.33 17.34 -9.66 16.68 -10 16 C-9.14453125 13.72265625 -9.14453125 13.72265625 -7.8125 11.0625 C-7.38582031 10.18722656 -6.95914063 9.31195313 -6.51953125 8.41015625 C-4.92753246 5.88505791 -3.38364166 4.73221164 -1 3 C-0.67 2.01 -0.34 1.02 0 0 Z " fill="#F6D6D0" transform="translate(243,96)"/>
<path d="M0 0 C0.99 0 1.98 0 3 0 C2.31583566 4.17576168 0.98634991 7.88080407 -0.5625 11.8125 C-1.01753906 12.97394531 -1.47257812 14.13539063 -1.94140625 15.33203125 C-2.29074219 16.21246094 -2.64007813 17.09289062 -3 18 C-4.09898702 14.70303895 -3.87124444 13.59505097 -3.0625 10.3125 C-2.86785156 9.50425781 -2.67320312 8.69601562 -2.47265625 7.86328125 C-2.31667969 7.24839844 -2.16070312 6.63351562 -2 6 C-1.34 6 -0.68 6 0 6 C0 4.02 0 2.04 0 0 Z " fill="#EEB4AC" transform="translate(355,326)"/>
<path d="M0 0 C3 1 3 1 3.94921875 2.890625 C6.41063747 10.75674619 6.41063747 10.75674619 6 15 C2.35219334 10.8310781 0 5.55196264 0 0 Z " fill="#F4CEC9" transform="translate(123,278)"/>
<path d="M0 0 C-3.51187196 2.40814077 -5.72656908 3.36629408 -10 3 C-9.67 5.31 -9.34 7.62 -9 10 C-10.5625 8.25 -10.5625 8.25 -12 6 C-11.83203125 3.97265625 -11.83203125 3.97265625 -11 2 C-9.2578125 0.91796875 -9.2578125 0.91796875 -7.125 0.1875 C-6.42632812 -0.06644531 -5.72765625 -0.32039063 -5.0078125 -0.58203125 C-3 -1 -3 -1 0 0 Z " fill="#F9DFDA" transform="translate(132,268)"/>
<path d="M0 0 C0.99 0.495 0.99 0.495 2 1 C2 1.66 2 2.32 2 3 C2.66 3 3.32 3 4 3 C5.32421875 4.6796875 5.32421875 4.6796875 6.6875 6.875 C7.14511719 7.59429687 7.60273438 8.31359375 8.07421875 9.0546875 C8.53248047 10.01761719 8.53248047 10.01761719 9 11 C8.67 11.66 8.34 12.32 8 13 C5.30274481 11.11192137 3.86783571 9.80175356 2 7 C1.34 6.67 0.68 6.34 0 6 C0 4.02 0 2.04 0 0 Z " fill="#A28366" transform="translate(357,247)"/>
<path d="M0 0 C0.33 0.66 0.66 1.32 1 2 C-0.09699219 1.91621094 -1.19398438 1.83242187 -2.32421875 1.74609375 C-3.77862096 1.64287811 -5.23304951 1.54003306 -6.6875 1.4375 C-7.40873047 1.38142578 -8.12996094 1.32535156 -8.87304688 1.26757812 C-12.77314064 1.00044841 -16.21111028 0.99112404 -20 2 C-19.67 1.34 -19.34 0.68 -19 0 C-12.29548392 -2.12093655 -6.58507596 -2.43891702 0 0 Z " fill="#FAC2BB" transform="translate(272,94)"/>
<path d="M0 0 C1.58294782 -0.05437607 3.16644256 -0.09296271 4.75 -0.125 C5.63171875 -0.14820313 6.5134375 -0.17140625 7.421875 -0.1953125 C10.1522171 0.0115316 11.63025493 0.69664021 14 2 C15.99110401 2.38290462 17.99100513 2.72604615 20 3 C20 3.33 20 3.66 20 4 C6.3667426 3.22095672 6.3667426 3.22095672 0 1 C0 0.67 0 0.34 0 0 Z " fill="#9A4F2D" transform="translate(214,261)"/>
<path d="M0 0 C0.90105469 0.11085938 1.80210937 0.22171875 2.73046875 0.3359375 C3.76107422 0.47902344 3.76107422 0.47902344 4.8125 0.625 C4.8125 1.285 4.8125 1.945 4.8125 2.625 C5.8025 2.625 6.7925 2.625 7.8125 2.625 C7.8125 3.285 7.8125 3.945 7.8125 4.625 C2.5325 3.635 -2.7475 2.645 -8.1875 1.625 C-4.73535147 -0.67643236 -3.95270676 -0.51333854 0 0 Z " fill="#8A4620" transform="translate(256.1875,259.375)"/>
<path d="M0 0 C2.97 0.495 2.97 0.495 6 1 C5.34 2.65 4.68 4.3 4 6 C1.36 5.67 -1.28 5.34 -4 5 C-4 4.01 -4 3.02 -4 2 C-2.68 2 -1.36 2 0 2 C0 1.34 0 0.68 0 0 Z " fill="#EEC5B6" transform="translate(153,236)"/>
<path d="M0 0 C0.33 1.32 0.66 2.64 1 4 C1.66 4 2.32 4 3 4 C4.60725635 7.21451269 4.05748185 10.43612536 4 14 C1.53698577 11.53698577 1.23233479 9.72639964 0.375 6.375 C0.11460937 5.37210937 -0.14578125 4.36921875 -0.4140625 3.3359375 C-0.60742188 2.56507813 -0.80078125 1.79421875 -1 1 C-0.67 0.67 -0.34 0.34 0 0 Z " fill="#F5CEC9" transform="translate(168,389)"/>
<path d="M0 0 C3.6417503 2.42783353 3.92245076 3.85082789 5.25 7.9375 C5.60578125 8.99839844 5.9615625 10.05929687 6.328125 11.15234375 C7 14 7 14 6 17 C4.9932996 14.73192796 3.99448234 12.46092246 3 10.1875 C2.71382812 9.54490234 2.42765625 8.90230469 2.1328125 8.24023438 C0.86288959 5.32243531 0 3.21734286 0 0 Z " fill="#F9DEDA" transform="translate(135,309)"/>
<path d="M0 0 C1 3 1 3 0.125 4.9375 C-0.24625 5.618125 -0.6175 6.29875 -1 7 C-1.103125 7.70125 -1.20625 8.4025 -1.3125 9.125 C-2 11 -2 11 -4.5625 12.25 C-5.366875 12.4975 -6.17125 12.745 -7 13 C-5.35821735 8.22390502 -2.73453298 4.20617096 0 0 Z " fill="#8C5C34" transform="translate(159,243)"/>
<path d="M0 0 C1.25180279 4.21919103 0.67252421 7.96088565 0.0625 12.25 C-0.03740234 12.99507812 -0.13730469 13.74015625 -0.24023438 14.5078125 C-0.48680156 16.33945442 -0.74250391 18.16986251 -1 20 C-1.33 20 -1.66 20 -2 20 C-2.05407567 17.41638482 -2.093707 14.83390745 -2.125 12.25 C-2.14175781 11.52039063 -2.15851563 10.79078125 -2.17578125 10.0390625 C-2.21072239 6.1955376 -2.17499684 3.25393228 0 0 Z " fill="#F6D6D0" transform="translate(207,202)"/>
<path d="M0 0 C0 4.7339375 -2.42180804 8.13271207 -5 12 C-5.66 12 -6.32 12 -7 12 C-7.33 12.66 -7.66 13.32 -8 14 C-7.36561334 10.53466285 -5.98631946 8.20125787 -4 5.3125 C-3.46375 4.52488281 -2.9275 3.73726563 -2.375 2.92578125 C-1 1 -1 1 0 0 Z " fill="#FAE8E1" transform="translate(222,106)"/>
<path d="M0 0 C0.66 0.33 1.32 0.66 2 1 C2.34833144 5.87664009 1.41685712 8.77050005 -1 13 C-1.33 13 -1.66 13 -2 13 C-2 10.69 -2 8.38 -2 6 C-1.34 6 -0.68 6 0 6 C0 4.02 0 2.04 0 0 Z " fill="#EDA39F" transform="translate(364,302)"/>
<path d="M0 0 C0.66 0.33 1.32 0.66 2 1 C1.34 2.98 0.68 4.96 0 7 C-0.66 7 -1.32 7 -2 7 C-2.33 8.98 -2.66 10.96 -3 13 C-3.66 12.67 -4.32 12.34 -5 12 C-4.42365861 7.24518354 -2.44931479 4.02951788 0 0 Z " fill="#AE9278" transform="translate(139,250)"/>
<path d="M0 0 C0.66 0.33 1.32 0.66 2 1 C-1.66666667 4.66666667 -5.33333333 8.33333333 -9 12 C-8.34 10.02 -7.68 8.04 -7 6 C-6.34 6 -5.68 6 -5 6 C-5 5.01 -5 4.02 -5 3 C-2.625 1.25 -2.625 1.25 0 0 Z " fill="#F7D5D1" transform="translate(217,190)"/>
<path d="M0 0 C0.33 0.99 0.66 1.98 1 3 C1.66 3.33 2.32 3.66 3 4 C1.375 6 1.375 6 -1 8 C-4.25 8.25 -4.25 8.25 -7 8 C-4.82575883 5.49962266 -3.26954202 4.56371414 0 4 C0 2.68 0 1.36 0 0 Z " fill="#F7D3CD" transform="translate(226,182)"/>
<path d="M0 0 C5.29158974 1.40071493 7.77478044 4.85487245 11 9 C10.67 9.66 10.34 10.32 10 11 C8 10 8 10 6.6875 7.5625 C4.72713571 4.58565053 3.35337589 3.99694959 0 3 C0 2.01 0 1.02 0 0 Z " fill="#F2CDC8" transform="translate(275,125)"/>
<path d="M0 0 C0 0.99 0 1.98 0 3 C0.66 3.33 1.32 3.66 2 4 C-0.64 4.33 -3.28 4.66 -6 5 C-6.33 4.01 -6.66 3.02 -7 2 C-2.25 0 -2.25 0 0 0 Z " fill="#874921" transform="translate(244,258)"/>
<path d="M0 0 C4.46171506 1.57472296 9.79688514 3.59377029 12 8 C10.35 7.67 8.7 7.34 7 7 C7 6.34 7 5.68 7 5 C6.21625 4.690625 5.4325 4.38125 4.625 4.0625 C2 3 2 3 0 2 C0 1.34 0 0.68 0 0 Z " fill="#F2CEC9" transform="translate(308,147)"/>
<path d="M0 0 C0.598125 0.20625 1.19625 0.4125 1.8125 0.625 C0.4375 3.125 0.4375 3.125 -1.1875 5.625 C-1.8475 5.625 -2.5075 5.625 -3.1875 5.625 C-3.5175 6.285 -3.8475 6.945 -4.1875 7.625 C-4.5175 5.645 -4.8475 3.665 -5.1875 1.625 C-2.1875 -0.375 -2.1875 -0.375 0 0 Z " fill="#EBA795" transform="translate(201.1875,264.375)"/>
<path d="M0 0 C0.33 0 0.66 0 1 0 C1.63019694 8.03501094 1.63019694 8.03501094 -1 12.0625 C-1.66 12.701875 -2.32 13.34125 -3 14 C-2.40380045 9.13103697 -1.43023178 4.67209049 0 0 Z " fill="#FAA39A" transform="translate(309,388)"/>
<path d="M0 0 C0.33 0 0.66 0 1 0 C0.48041715 4.37934119 -0.05675742 8.68803391 -1 13 C-1.66 12.67 -2.32 12.34 -3 12 C-2.14285714 3.42857143 -2.14285714 3.42857143 0 0 Z " fill="#ED8B84" transform="translate(302,283)"/>
<path d="M0 0 C1.43791516 0.14168137 2.8753237 0.28851043 4.3125 0.4375 C5.11300781 0.51871094 5.91351563 0.59992188 6.73828125 0.68359375 C9 1 9 1 12 2 C11.67 2.66 11.34 3.32 11 4 C10.21625 3.95875 9.4325 3.9175 8.625 3.875 C5.83883881 3.71271266 5.83883881 3.71271266 4 6 C4 4.35 4 2.7 4 1 C2.68 0.67 1.36 0.34 0 0 Z " fill="#DE8471" transform="translate(209,261)"/>
<path d="M0 0 C0.66 0 1.32 0 2 0 C2.6496875 1.175625 2.6496875 1.175625 3.3125 2.375 C5.26798281 5.41686215 6.60211849 5.98981901 10 7 C10 7.99 10 8.98 10 10 C6.55204777 8.46757679 3.7800962 6.55468299 1 4 C0.1875 1.75 0.1875 1.75 0 0 Z " fill="#EFAAA0" transform="translate(243,121)"/>
<path d="M0 0 C0.66 0.33 1.32 0.66 2 1 C-0.97 4.3 -3.94 7.6 -7 11 C-7.33 10.34 -7.66 9.68 -8 9 C-6.85459775 7.68712379 -5.70866567 6.37470979 -4.5625 5.0625 C-3.92441406 4.33160156 -3.28632813 3.60070312 -2.62890625 2.84765625 C-1.77458541 1.87860647 -0.91348825 0.91348825 0 0 Z " fill="#FCE5E2" transform="translate(162,191)"/>
<path d="M0 0 C0.53625 0.2475 1.0725 0.495 1.625 0.75 C-3.79038462 4.81153846 -3.79038462 4.81153846 -6.75 4.5 C-7.28625 4.2525 -7.8225 4.005 -8.375 3.75 C-2.95961538 -0.31153846 -2.95961538 -0.31153846 0 0 Z " fill="#FAE5DF" transform="translate(191.375,147.25)"/>
<path d="M0 0 C5.75 1.75 5.75 1.75 8 4 C8 4.99 8 5.98 8 7 C6.68 6.67 5.36 6.34 4 6 C4 5.34 4 4.68 4 4 C2.70766393 2.62689293 1.37562854 1.28965176 0 0 Z " fill="#E9ACA4" transform="translate(268,95)"/>
<path d="M0 0 C1.98 0.99 1.98 0.99 4 2 C4 2.99 4 3.98 4 5 C6.64 5 9.28 5 12 5 C12 5.33 12 5.66 12 6 C8.7 6 5.4 6 2 6 C1.34 4.02 0.68 2.04 0 0 Z " fill="#F3D4D1" transform="translate(172,403)"/>
<path d="M0 0 C0.33 0 0.66 0 1 0 C2.45295405 8.19256018 2.45295405 8.19256018 0.5625 11.5625 C0.046875 12.036875 -0.46875 12.51125 -1 13 C-1.07654536 8.48382401 -1.10228696 4.40914783 0 0 Z " fill="#F18B86" transform="translate(276,363)"/>
<path d="M0 0 C0.66 0.66 1.32 1.32 2 2 C0.8141763 5.37503669 -0.27573689 7.64722731 -3 10 C-2.25 3.375 -2.25 3.375 0 0 Z " fill="#ED8A83" transform="translate(346,314)"/>
<path d="M0 0 C-0.33 1.32 -0.66 2.64 -1 4 C-1 3.01 -1 2.02 -1 1 C-1.763125 1.515625 -2.52625 2.03125 -3.3125 2.5625 C-4.199375 3.036875 -5.08625 3.51125 -6 4 C-6.99 3.67 -7.98 3.34 -9 3 C-9.33 2.34 -9.66 1.68 -10 1 C-6.59437148 0.22157062 -3.49234244 -0.09978121 0 0 Z " fill="#E59D88" transform="translate(325,263)"/>
<path d="M0 0 C0.99 0.33 1.98 0.66 3 1 C3.99 1 4.98 1 6 1 C5.67 1.99 5.34 2.98 5 4 C3.02 4.33 1.04 4.66 -1 5 C-0.67 3.35 -0.34 1.7 0 0 Z " fill="#844A22" transform="translate(275,259)"/>
<path d="M0 0 C-0.33 0.99 -0.66 1.98 -1 3 C-3.31 3 -5.62 3 -8 3 C-7.67 2.01 -7.34 1.02 -7 0 C-4.05610218 -1.17755913 -3.10046087 -1.03348696 0 0 Z " fill="#936A49" transform="translate(154,241)"/>
<path d="M0 0 C0.99 0 1.98 0 3 0 C3.66 1.65 4.32 3.3 5 5 C6.32 4.67 7.64 4.34 9 4 C9 4.66 9 5.32 9 6 C6.75 6.25 6.75 6.25 4 6 C1.6875 4.125 1.6875 4.125 0 2 C0 1.34 0 0.68 0 0 Z " fill="#F6D8D4" transform="translate(144,232)"/>
<path d="M0 0 C1.39049921 3.16022548 0.90218951 4.27014325 -0.3125 7.625 C-2 11 -2 11 -4 13 C-3.40895235 8.15340923 -2.02055843 4.39251833 0 0 Z " fill="#FDE3DE" transform="translate(221,115)"/>
<path d="M0 0 C2.49505962 2.49505962 2.35948376 3.67328888 2.625 7.125 C2.69976562 8.03507812 2.77453125 8.94515625 2.8515625 9.8828125 C2.92503906 10.93082031 2.92503906 10.93082031 3 12 C0.52075165 8.28112748 -0.08484002 5.36460914 -1 1 C-0.67 0.67 -0.34 0.34 0 0 Z " fill="#F7D2CF" transform="translate(156,358)"/>
<path d="M0 0 C0.99 0 1.98 0 3 0 C2.39009109 3.55780196 1.4216319 6.6828589 0 10 C-0.33 10 -0.66 10 -1 10 C-0.67 6.7 -0.34 3.4 0 0 Z " fill="#EFB5AF" transform="translate(359,316)"/>
<path d="M0 0 C-0.33 1.32 -0.66 2.64 -1 4 C-1 3.01 -1 2.02 -1 1 C-1.66 1 -2.32 1 -3 1 C-3 1.66 -3 2.32 -3 3 C-4.32 3.33 -5.64 3.66 -7 4 C-7.66 3.01 -8.32 2.02 -9 1 C-5.92677456 0.08941469 -3.19902639 -0.08886184 0 0 Z " fill="#EEA795" transform="translate(213,262)"/>
<path d="M0 0 C1.32 0 2.64 0 4 0 C2.25 4.875 2.25 4.875 0 6 C-1.125 2.25 -1.125 2.25 0 0 Z " fill="#6F3505" transform="translate(354,249)"/>
<path d="M0 0 C3.99996286 1.33332095 4.83782337 3.4957827 7 7 C5.68 6.67 4.36 6.34 3 6 C2.67 6.66 2.34 7.32 2 8 C0.875 4.25 0.875 4.25 2 2 C1.34 2 0.68 2 0 2 C0 1.34 0 0.68 0 0 Z " fill="#A38062" transform="translate(350,240)"/>
<path d="M0 0 C0.66 2.31 1.32 4.62 2 7 C-0.4375 6.25 -0.4375 6.25 -3 5 C-3.8125 2.875 -3.8125 2.875 -4 1 C-1 0 -1 0 0 0 Z " fill="#F8D6D1" transform="translate(215,231)"/>
<path d="M0 0 C0.66 0.33 1.32 0.66 2 1 C2 1.66 2 2.32 2 3 C2.969375 3.12375 3.93875 3.2475 4.9375 3.375 C6.4534375 3.684375 6.4534375 3.684375 8 4 C8.33 4.66 8.66 5.32 9 6 C5.37 5.01 1.74 4.02 -2 3 C-1.34 2.01 -0.68 1.02 0 0 Z " fill="#F7BAB1" transform="translate(284,183)"/>
<path d="M0 0 C0.33 0.66 0.66 1.32 1 2 C0.34 2 -0.32 2 -1 2 C-1.66 3.32 -2.32 4.64 -3 6 C-3.33 5.01 -3.66 4.02 -4 3 C-2.68 2.01 -1.36 1.02 0 0 Z M-6 6 C-5.34 6.33 -4.68 6.66 -4 7 C-5.32 7.99 -6.64 8.98 -8 10 C-7.34 8.68 -6.68 7.36 -6 6 Z " fill="#FBE5DD" transform="translate(198,150)"/>
<path d="M0 0 C0.66 0 1.32 0 2 0 C1.67 3.96 1.34 7.92 1 12 C0.67 12 0.34 12 0 12 C-0.19573608 10.56359829 -0.38127816 9.12580496 -0.5625 7.6875 C-0.66691406 6.88699219 -0.77132813 6.08648437 -0.87890625 5.26171875 C-1 3 -1 3 0 0 Z " fill="#EC8780" transform="translate(297,304)"/>
<path d="M0 0 C4.455 0.99 4.455 0.99 9 2 C8.67 2.66 8.34 3.32 8 4 C6.35 4 4.7 4 3 4 C3 3.34 3 2.68 3 2 C2.01 1.67 1.02 1.34 0 1 C0 0.67 0 0.34 0 0 Z " fill="#D87E6A" transform="translate(260,263)"/>
<path d="M0 0 C2.31 0 4.62 0 7 0 C6.67 0.99 6.34 1.98 6 3 C4.68 2.67 3.36 2.34 2 2 C1.67 2.66 1.34 3.32 1 4 C0.67 2.68 0.34 1.36 0 0 Z " fill="#703406" transform="translate(289,245)"/>
<path d="M0 0 C0.66 0.33 1.32 0.66 2 1 C0.75023244 4.65316671 0.32901247 5.78065836 -3 8 C-3.33 6.68 -3.66 5.36 -4 4 C-2.68 4 -1.36 4 0 4 C0 2.68 0 1.36 0 0 Z " fill="#EFB6B0" transform="translate(356,227)"/>
<path d="M0 0 C2.97 0.33 5.94 0.66 9 1 C8.01 1.33 7.02 1.66 6 2 C6 2.99 6 3.98 6 5 C5.34 5 4.68 5 4 5 C3.896875 4.360625 3.79375 3.72125 3.6875 3.0625 C3.460625 2.381875 3.23375 1.70125 3 1 C2.01 0.67 1.02 0.34 0 0 Z " fill="#E08170" transform="translate(335,267)"/>
<path d="M0 0 C1.65 0.33 3.3 0.66 5 1 C4.360625 1.2475 3.72125 1.495 3.0625 1.75 C0.81258459 2.81562433 0.81258459 2.81562433 0.25 5.125 C0.1675 5.74375 0.085 6.3625 0 7 C-1.04449911 3.86650268 -0.93423645 3.01031744 0 0 Z " fill="#E07C6C" transform="translate(325,263)"/>
<path d="M0 0 C0.66 1.32 1.32 2.64 2 4 C-1 6 -1 6 -4 6 C-2.84826645 3.53199953 -1.95216435 1.95216435 0 0 Z " fill="#A17D5C" transform="translate(145,244)"/>
<path d="M0 0 C2.89932357 2.39509338 3.50168276 4.31245243 4 8 C2.68 7.34 1.36 6.68 0 6 C0 4.02 0 2.04 0 0 Z " fill="#F3C2C0" transform="translate(323,159)"/>
<path d="M0 0 C3.77545388 1.09068668 6.47043472 1.9083091 9 5 C5.625 4.75 5.625 4.75 2 4 C0.5625 1.9375 0.5625 1.9375 0 0 Z " fill="#F7CDC9" transform="translate(263,118)"/>
</svg>
